<svg width="149" height="48" viewBox="0 0 149 48" fill="none" xmlns="http://www.w3.org/2000/svg">
<g filter="url(#filter0_dddd_48_7443)">
<rect x="4" width="141" height="34" rx="17" fill="#FFA629"/>
<path d="M19.659 13.6328C19.659 14.4121 19.7775 15.1663 20.0145 15.8955C20.2514 16.6201 20.6046 17.265 21.074 17.8301C21.548 18.3906 22.1245 18.8145 22.8035 19.1016L21.7781 20.4961C21.0854 20.1816 20.4884 19.7327 19.9871 19.1494C19.4904 18.5615 19.0962 17.8711 18.8045 17.0781C18.5128 17.944 18.1072 18.696 17.5877 19.334C17.0727 19.972 16.4461 20.4596 15.7078 20.7969L14.6551 19.3477C15.3569 19.0514 15.9493 18.6117 16.4324 18.0283C16.9155 17.4404 17.2778 16.7682 17.5193 16.0117C17.7654 15.2552 17.8908 14.4622 17.8953 13.6328V11.7734H19.659V13.6328ZM25.2371 23.2852H23.4734V10.8164H25.2371V23.2852ZM33.1449 11.1445C33.1449 11.5592 33.3067 11.958 33.6303 12.3408C33.9538 12.7191 34.4324 13.0472 35.0658 13.3252C35.6993 13.5986 36.4626 13.7832 37.3559 13.8789L36.7816 15.1914C35.7152 15.0729 34.7924 14.8223 34.0131 14.4395C33.2338 14.0566 32.6413 13.5758 32.2357 12.9971C31.8256 13.5758 31.2331 14.0566 30.4584 14.4395C29.6837 14.8223 28.7699 15.0729 27.7172 15.1914L27.1293 13.8789C28.0225 13.7832 28.7859 13.5986 29.4193 13.3252C30.0574 13.0472 30.5382 12.7191 30.8617 12.3408C31.1853 11.958 31.3493 11.5592 31.3539 11.1445V10.8848H33.1449V11.1445ZM37.9164 17.0781H33.1039V17.8984H36.5355V21.1113H29.6039V21.8633H36.8637V23.1758H27.8949V19.8809H34.8129V19.2246H27.8813V17.8984H31.3539V17.0781H26.5688V15.7109H37.9164V17.0781ZM51.6813 19.9082H49.9449V15.4512H47.9078V14.043H49.9449V10.8301H51.6813V19.9082ZM51.982 23.0391H43.4234V19.1152H45.1734V21.6445H51.982V23.0391ZM45.898 13.2637C45.898 13.7604 46.0006 14.2458 46.2057 14.7197C46.4153 15.1937 46.7343 15.6221 47.1627 16.0049C47.5911 16.3877 48.122 16.6816 48.7555 16.8867L47.8941 18.2676C47.2242 18.0534 46.6477 17.7321 46.1646 17.3037C45.6861 16.8753 45.3056 16.3695 45.023 15.7861C44.7405 16.4333 44.3463 16.9915 43.8404 17.4609C43.3391 17.9303 42.7307 18.2858 42.0152 18.5273L41.1266 17.1055C41.7828 16.9004 42.3342 16.5973 42.7809 16.1963C43.232 15.7952 43.567 15.3418 43.7857 14.8359C44.0045 14.3255 44.1161 13.7969 44.1207 13.25V13.0586H41.6188V11.6641H48.3727V13.0586H45.898V13.2637ZM59.7039 14.6035C59.7039 15.6198 59.9021 16.5495 60.2986 17.3926C60.6997 18.2357 61.3172 18.8828 62.1512 19.334L61.1941 20.6055C60.6518 20.3275 60.1893 19.9492 59.8064 19.4707C59.4236 18.9922 59.1206 18.4385 58.8973 17.8096C58.6694 18.4977 58.3641 19.1061 57.9813 19.6348C57.5984 20.1634 57.1336 20.5872 56.5867 20.9062L55.5887 19.5938C56.4318 19.1061 57.0516 18.4157 57.448 17.5225C57.8491 16.6292 58.0542 15.6562 58.0633 14.6035V14.3164H56.0535V12.9219H58.0633V11.2402H59.6902V12.9219H61.659V14.3164H59.7039V14.6035ZM66.5809 23.2578H64.9266V10.8164H66.5809V23.2578ZM64.0379 22.6836H62.3973V16.9551H60.9344V15.5332H62.3973V11.0215H64.0379V22.6836ZM77.7563 13.3594C77.7563 14.1569 77.7471 14.8337 77.7289 15.3896C77.7107 15.9411 77.6583 16.57 77.5717 17.2764C77.4897 17.9827 77.3598 18.7552 77.182 19.5938L75.4457 19.4297C75.6599 18.5319 75.8171 17.6022 75.9174 16.6406L68.7055 16.9961L68.4867 15.6016L76.0063 15.3281C76.0154 15.1048 76.0222 14.8428 76.0268 14.542C76.0359 14.2412 76.0427 13.9564 76.0473 13.6875V13.3594V13.3047H68.8695V11.9102H77.7563V13.3594ZM78.9184 21.7676H67.5707V20.3457H78.9184V21.7676ZM89.752 23.2852H88.0156V10.8164H89.752V23.2852ZM85.8965 16.6543H81.7949V18.9375C82.7702 18.9329 83.6794 18.8988 84.5225 18.835C85.3701 18.7712 86.2383 18.6686 87.127 18.5273L87.2773 19.9355C86.3112 20.1042 85.3496 20.2204 84.3926 20.2842C83.4355 20.3434 82.3418 20.373 81.1113 20.373H79.9902V15.2734H84.1191V13.2637H79.9766V11.8555H85.8965V16.6543ZM97.6187 12.457C97.6187 13.0768 97.7942 13.6829 98.1451 14.2754C98.5006 14.8678 99.0133 15.3828 99.6832 15.8203C100.358 16.2578 101.146 16.554 102.048 16.709L101.283 18.1582C100.216 17.9486 99.2867 17.5589 98.4937 16.9893C97.7053 16.4196 97.106 15.7269 96.6959 14.9111C96.2766 15.7223 95.6705 16.4128 94.8775 16.9824C94.0891 17.5521 93.1663 17.944 92.109 18.1582L91.357 16.709C92.2457 16.5495 93.0227 16.251 93.6881 15.8135C94.3534 15.376 94.8639 14.861 95.2193 14.2686C95.5748 13.6715 95.7548 13.0677 95.7594 12.457V11.5547H97.6187V12.457ZM102.459 21.7266H91.0699V20.291H102.459V21.7266ZM112.964 18.623H104.159V11.7324H112.868V13.1406H105.937V14.4531H112.581V15.8203H105.937V17.2422H112.964V18.623ZM114.208 21.8086H102.82V20.3867H114.208V21.8086Z" fill="black"/>
<path d="M129.485 15.3842L128.542 14.4414L122.333 20.6505V21.5933H123.276L129.485 15.3842ZM130.428 14.4414L131.371 13.4986L130.428 12.5558L129.485 13.4986L130.428 14.4414ZM123.828 22.9267H121V20.0982L129.957 11.1415C130.217 10.8812 130.639 10.8812 130.899 11.1415L132.785 13.0272C133.045 13.2875 133.045 13.7096 132.785 13.97L123.828 22.9267Z" fill="black"/>
</g>
<defs>
<filter id="filter0_dddd_48_7443" x="0" y="0" width="149" height="48" filterUnits="userSpaceOnUse" color-interpolation-filters="sRGB">
<feFlood flood-opacity="0" result="BackgroundImageFix"/>
<feColorMatrix in="SourceAlpha" type="matrix" values="0 0 0 0 0 0 0 0 0 0 0 0 0 0 0 0 0 0 127 0" result="hardAlpha"/>
<feOffset dy="1"/>
<feGaussianBlur stdDeviation="0.5"/>
<feColorMatrix type="matrix" values="0 0 0 0 0 0 0 0 0 0 0 0 0 0 0 0 0 0 0.1 0"/>
<feBlend mode="normal" in2="BackgroundImageFix" result="effect1_dropShadow_48_7443"/>
<feColorMatrix in="SourceAlpha" type="matrix" values="0 0 0 0 0 0 0 0 0 0 0 0 0 0 0 0 0 0 127 0" result="hardAlpha"/>
<feOffset dy="3"/>
<feGaussianBlur stdDeviation="1.5"/>
<feColorMatrix type="matrix" values="0 0 0 0 0 0 0 0 0 0 0 0 0 0 0 0 0 0 0.09 0"/>
<feBlend mode="normal" in2="effect1_dropShadow_48_7443" result="effect2_dropShadow_48_7443"/>
<feColorMatrix in="SourceAlpha" type="matrix" values="0 0 0 0 0 0 0 0 0 0 0 0 0 0 0 0 0 0 127 0" result="hardAlpha"/>
<feOffset dy="6"/>
<feGaussianBlur stdDeviation="1.5"/>
<feColorMatrix type="matrix" values="0 0 0 0 0 0 0 0 0 0 0 0 0 0 0 0 0 0 0.05 0"/>
<feBlend mode="normal" in2="effect2_dropShadow_48_7443" result="effect3_dropShadow_48_7443"/>
<feColorMatrix in="SourceAlpha" type="matrix" values="0 0 0 0 0 0 0 0 0 0 0 0 0 0 0 0 0 0 127 0" result="hardAlpha"/>
<feOffset dy="10"/>
<feGaussianBlur stdDeviation="2"/>
<feColorMatrix type="matrix" values="0 0 0 0 0 0 0 0 0 0 0 0 0 0 0 0 0 0 0.01 0"/>
<feBlend mode="normal" in2="effect3_dropShadow_48_7443" result="effect4_dropShadow_48_7443"/>
<feBlend mode="normal" in="SourceGraphic" in2="effect4_dropShadow_48_7443" result="shape"/>
</filter>
</defs>
</svg>
