<svg width="25" height="24" viewBox="0 0 25 24" fill="none" xmlns="http://www.w3.org/2000/svg">
<g id="Frame">
<path id="Vector" d="M12.5 2C18.0228 2 22.5 6.47715 22.5 12C22.5 17.5228 18.0228 22 12.5 22C6.97715 22 2.5 17.5228 2.5 12H4.5C4.5 16.4183 8.08172 20 12.5 20C16.9183 20 20.5 16.4183 20.5 12C20.5 7.58172 16.9183 4 12.5 4C9.75022 4 7.32447 5.38734 5.88451 7.50024L8.5 7.5V9.5H2.5V3.5H4.5L4.49989 5.99918C6.32434 3.57075 9.22873 2 12.5 2ZM13.5 7L13.4998 11.585L16.7426 14.8284L15.3284 16.2426L11.4998 12.413L11.5 7H13.5Z" fill="#F69000"/>
</g>
</svg>
